<svg xmlns="http://www.w3.org/2000/svg" viewBox="0 0 104 104" id="s-no-items-to-display" width="100%" height="100%">
    <circle id="svgstore1baf3f5fdced1a0767252e5cd4e0468dXMLID_183_" style="fill:#E0E0E0;" cx="52" cy="56.727" r="46.536">

    </circle>
    <g id="svgstore1baf3f5fdced1a0767252e5cd4e0468dXMLID_142_">
        <path id="svgstore1baf3f5fdced1a0767252e5cd4e0468dXMLID_154_" style="fill:#B0B0B0;" d="M75.481,49.123c0.081-6.856,0.145-12.272-1.967-20.083
		c-2.702-9.993-9.637-15.395-20.066-15.701c0.014-1.644,0.01-3.293,0.003-4.899c-0.003-0.744-0.005-1.489-0.006-2.233
		c1.447-0.755,1.79-1.973,1.596-2.906c-0.292-1.414-1.761-2.565-3.272-2.565c-0.929,0-1.751,0.427-2.312,1.201
		c-0.687,0.945-0.803,2.087-0.311,3.054c0.375,0.737,1.061,1.276,1.859,1.509c0.001,0.65,0.003,1.301,0.005,1.95
		c0.006,1.61,0.008,3.261-0.006,4.901C37.895,14.01,30.496,23.358,29.009,41.17c-0.285,3.416-0.2,10.998-0.138,16.534
		c0,0.044,0.001,0.083,0.001,0.125c-0.009,0.053-0.019,0.105-0.021,0.16c-0.003,0.097,0.008,0.19,0.026,0.282
		c0.017,1.5,0.03,2.791,0.03,3.681c0,3.736,0.607,6.359,3.567,7.021c0.197,0.045,0.422,0.095,4.591,0.095
		c0.305,0,0.623,0,0.952-0.001c0.002,1.985,0.005,4.054,0.009,6.164c0.009,4.893,0.018,9.936-0.004,14.524
		c-1.355,0.38-1.938,1.531-1.938,3.77c0,1.261,0,3.608,3.738,3.608l4.973,0.004c2.602,0,4.083-0.006,4.526-0.019
		c1.647-0.042,2.797-1.358,2.797-3.199c0-2.219-0.64-3.578-1.889-4.079c-0.025-3.892,0.021-8.028,0.066-12.029
		c0.033-2.973,0.063-5.93,0.069-8.818c1.556-0.013,3.103-0.027,4.584-0.038c0.005,2.898,0.035,5.869,0.069,8.854
		c0.045,4.021,0.091,8.178,0.066,12.086c0,0.024,0.005,0.048,0.007,0.073c-1.493,0.785-1.501,2.669-1.501,3.395
		c0,3.203,1.752,3.728,2.796,3.754c0.443,0.012,1.923,0.019,4.526,0.019l4.974-0.004c3.449,0,3.738-1.829,3.738-3.541
		c0-1.538-0.257-3.553-2.334-3.927c-0.022-4.564-0.013-9.572-0.004-14.434c0.004-2.18,0.008-4.314,0.009-6.358l0.306,0.001
		c3.051,0,4.996-0.094,6.293-1.404c1.669-1.686,1.638-4.681,1.564-11.916C75.433,53.213,75.458,51.134,75.481,49.123z
		 M31.441,41.373c1.431-17.13,8.248-25.511,20.832-25.618c0.004,0,0.01,0.002,0.014,0.002c0.01,0,0.017-0.002,0.027-0.003
		c0.068,0,0.133-0.004,0.201-0.004c9.872,0,16.144,4.686,18.642,13.926c2.023,7.483,1.965,12.489,1.882,19.418
		c-0.024,2.024-0.048,4.116-0.024,6.484c0.004,0.433,0.009,0.848,0.012,1.253c-4.617,0.096-32.118,0.245-41.725,0.013
		C31.246,51.694,31.18,44.503,31.441,41.373z M47.795,84.05c-0.049,0.009-0.101,0.006-0.149,0.022
		c-2.354,0.145-5.983,0.21-7.168-0.11c0-1.217,0-2.443-0.002-3.676c1.266,0.167,3.036,0.22,5.219,0.22
		c0.385,0,0.782-0.001,1.19-0.004c0.425-0.003,0.737-0.006,0.874-0.001c0.023,0.001,0.044-0.004,0.066-0.004
		C47.813,81.68,47.803,82.866,47.795,84.05z M40.475,86.443c0.925,0.143,2.142,0.193,3.359,0.193c1.52,0,3.031-0.074,3.95-0.13
		c-0.003,1.045-0.001,2.081,0.004,3.103l-0.871-0.003c-1.96-0.005-4.732-0.014-6.453-0.012
		C40.469,88.564,40.472,87.512,40.475,86.443z M47.854,77.785c-0.001,0.091-0.002,0.185-0.003,0.277
		c-0.002,0-0.003-0.001-0.005-0.001c-0.153-0.005-0.502-0.003-0.979-0.001c-1.263,0.01-4.792,0.033-6.396-0.234
		c-0.001-0.869-0.003-1.738-0.005-2.6c-0.001-0.408-0.001-0.811-0.002-1.215c0.541,0.045,1.252,0.07,2.219,0.07
		c1.168,0,2.702-0.035,4.737-0.109c0.174-0.006,0.329-0.012,0.472-0.017C47.882,75.229,47.869,76.505,47.854,77.785z M49.257,94.68
		c-0.415,0.011-1.916,0.017-4.461,0.017l-4.973-0.004c-1.297,0-1.297,0-1.297-1.167c0-0.969,0.12-1.338,0.172-1.453
		c0.1-0.017,0.28-0.025,0.347-0.027c0.032-0.001,0.079-0.003,0.141-0.004c0.015,0.001,0.03,0.005,0.045,0.005
		c0.003,0,0.005,0,0.008,0c0.022,0,0.042-0.006,0.063-0.006c1.101-0.015,5.067,0.001,7.609,0.009l2.098,0.006
		c0.315,0,0.671,0,0.671,1.865C49.678,94.144,49.637,94.669,49.257,94.68z M47.911,71.513c-0.172,0.006-0.361,0.012-0.578,0.02
		c-3.607,0.132-5.908,0.144-6.872,0.036c-0.001-0.851-0.002-1.686-0.003-2.51c2.259-0.009,4.833-0.026,7.465-0.046
		C47.922,69.839,47.917,70.674,47.911,71.513z M57.483,80.062c0.389,0.001,1.106,0.014,1.858,0.026c1.824,0.03,3.238,0.05,4.3,0.05
		c0.465,0,0.861-0.004,1.195-0.012c-0.001,1.27-0.003,2.535-0.002,3.788c-1.208,0.099-5.301,0.186-7.253,0.133
		c-0.021-0.005-0.043-0.002-0.064-0.007C57.509,82.714,57.496,81.386,57.483,80.062z M64.844,75.227
		c-0.001,0.816-0.003,1.638-0.004,2.459c-1.341,0.031-4.014-0.013-5.458-0.039c-0.939-0.015-1.556-0.026-1.926-0.027
		c-0.013-1.161-0.025-2.317-0.036-3.473l0.092,0.001c1.057,0.009,2.134,0.017,3.157,0.017c1.642,0,3.13-0.019,4.177-0.075
		C64.846,74.469,64.845,74.845,64.844,75.227z M59.079,86.495c1.933,0,4.431-0.049,5.758-0.141c0.002,1.099,0.006,2.181,0.01,3.241
		c-1.728-0.001-4.242,0.006-6.059,0.011l-1.264,0.004c0.005-1.031,0.006-2.075,0.004-3.13C57.961,86.49,58.492,86.495,59.079,86.495
		z M64.851,71.65c-1.826,0.107-5.847,0.072-7.317,0.058l-0.132-0.001c-0.006-0.929-0.011-1.856-0.013-2.772
		c3.027-0.026,5.677-0.048,7.464-0.058C64.853,69.784,64.852,70.708,64.851,71.65z M67.126,94.515
		c-0.002,0.002-0.229,0.177-1.241,0.177l-4.974,0.004c-2.545,0-4.046-0.006-4.461-0.017c-0.115-0.004-0.42-0.011-0.42-1.315
		c0-1.31,0.156-1.31,0.671-1.31l2.096-0.006c1.762-0.006,4.2-0.014,5.913-0.014c0.5,0,0.936,0,1.272,0.002
		c0.031,0.002,0.061,0.009,0.093,0.009c0.003,0,0.005,0,0.008,0c0.027,0,0.052-0.006,0.078-0.008
		c0.248,0.001,0.427,0.003,0.504,0.007c0.223,0.009,0.292,0.032,0.291,0.03c0.018,0.022,0.228,0.311,0.228,1.517
		C67.182,93.855,67.182,94.403,67.126,94.515z M72.159,65.753c-0.625,0.631-2.283,0.68-4.558,0.68l-1.255-0.003
		c-1.699,0-5.633,0.035-10.237,0.074c-6.367,0.054-14.292,0.122-19.043,0.122c-3.337,0-4.001-0.035-4.058-0.036
		c-0.739-0.165-1.659-0.371-1.659-4.639c0-0.684-0.008-1.6-0.019-2.666c3.936,0.094,10.865,0.128,18.015,0.128
		c10.132,0,20.68-0.069,23.698-0.14C73.039,62.905,72.89,65.014,72.159,65.753z">
        </path>
        <path id="svgstore1baf3f5fdced1a0767252e5cd4e0468dXMLID_145_" style="fill:#B0B0B0;" d="M52.735,47.508c0.222,0.005,0.443,0.007,0.659,0.007c0.001,0,0.001,0,0.002,0
		c4.992,0,8.838-1.274,11.431-3.788c2.153-2.087,3.339-5.032,3.339-8.295c0-4.108-2.526-12.325-12.087-14.018
		c-1.278-0.226-2.548-0.341-3.776-0.341c-7.991,0-14.449,5.027-15.706,12.226c-0.278,1.599-0.622,5.689,2.191,9.108
		C41.451,45.646,46.143,47.362,52.735,47.508z M39.002,33.718c1.048-6.008,6.518-10.204,13.301-10.204
		c1.086,0,2.213,0.103,3.35,0.304c7.967,1.411,10.072,8.215,10.072,11.615c0,1.836-0.451,4.462-2.597,6.542
		c-2.122,2.056-5.396,3.1-9.733,3.1h-0.001c-0.199,0-0.402-0.003-0.606-0.007c-5.848-0.129-9.924-1.546-12.116-4.211
		C38.503,38.217,38.782,34.985,39.002,33.718z">
        </path>
        <path id="svgstore1baf3f5fdced1a0767252e5cd4e0468dXMLID_144_" style="fill:#B0B0B0;" d="M45.043,37.579L45.043,37.579c0.468,0,0.938-0.161,1.398-0.481
		c1.024-0.71,1.414-2.039,0.993-3.386c-0.385-1.232-1.322-2.06-2.332-2.06c-0.432,0-1.25,0.155-1.87,1.196
		c-0.575,0.966-0.566,2.59,0.02,3.62C43.652,37.174,44.305,37.579,45.043,37.579z">
        </path>
        <path id="svgstore1baf3f5fdced1a0767252e5cd4e0468dXMLID_143_" style="fill:#B0B0B0;" d="M58.876,37.618L58.876,37.618c0.258,0,0.522-0.045,0.783-0.135
		c1.345-0.458,1.813-2.124,1.579-3.533c-0.226-1.363-1.088-2.244-2.197-2.244c-0.473,0-0.947,0.163-1.412,0.484
		c-1.132,0.783-1.345,2.41-0.969,3.613C57.009,36.922,57.858,37.618,58.876,37.618z">
        </path>
    </g>
</svg>